PathFileType	4	(X/Y/Z)	C:/Users/beibeiliu/ov580/test_trc/User3\sequence.9_training_dense_left.trc
DataRate	CameraRate	NumFrames	NumMarkers	Units	OrigDataRate	OrigDataStartFrame	OrigNumFrames
120	120	11	19	mm	120	54	213
Frame#	Time	ThumbCMC			ThumbMCP			ThumbIP			ThumbTip			IndexMCP			IndexPIP			IndexTip			MiddleMCP			MiddlePIP			MiddleTip			RingMCP			RingPIP			RingTip			PinkyMCP			PinkyPIP			PinkyTip			BackHand1			BackHand2			BackHand3	
		X0	Y0	Z0	X1	Y1	Z1	X2	Y2	Z2	X3	Y3	Z3	X4	Y4	Z4	X5	Y5	Z5	X6	Y6	Z6	X7	Y7	Z7	X8	Y8	Z8	X9	Y9	Z9	X10	Y10	Z10	X11	Y11	Z11	X12	Y12	Z12	X13	Y13	Z13	X14	Y14	Z14	X15	Y15	Z15	X16	Y16	Z16	X17	Y17	Z17	X18	Y18	Z18	
53	0.441667	-217.975	33.48	9.54406	-198.451	38.4045	-23.2861	-183.139	31.8809	-51.2949	-176.051	7.56848	-58.575	-244.243	16.2659	-60.3956	-239.518	20.7322	-93.8802	-215.12	26.6983	-108.156	-223.801	-1.52679	-73.5464	-192.208	3.61306	-81.3109	-184.666	9.64839	-43.3581	-207.476	-15.4226	-59.2977	-178.351	-10.3475	-55.5116	-179.235	0.994385	-24.9211	-200.687	-32.6412	-45.7519	-176.307	-17.3954	-41.4595	-180.142	-6.19957	-14.0662	-242.709	-26.6772	-8.89573	-243.728	-25.4074	19.6483	-249.852	10.0069	-0.623031	
54	0.45	-216.51	34.7916	6.47939	-196.178	39.7326	-18.2848	-180.483	34.6553	-47.4798	-173.076	10.8728	-56.5669	-240.251	20.5624	-61.7471	-229.649	27.122	-95.6988	-202.664	32.7519	-101.245	-220.706	-2.08281	-71.3921	-189.23	8.20801	-79.3591	-182.602	13.8958	-41.1316	-203.506	-16.1031	-57.1567	-173.418	-8.19463	-50.7698	-179.446	2.50898	-22.1115	-195.471	-28.9621	-47.254	-173.282	-15.5985	-39.6976	-182.242	-6.0527	-13.2116	-240.665	-23.7013	-12.4432	-239.752	-25.2663	19.8759	-245.7	11.8371	1.068	
55	0.458333	-213.366	33.8483	9.91986	-191.732	42.0801	-18.2621	-177.503	34.5782	-42.7644	-166.752	13.3836	-58.4617	-234.29	24.303	-59.822	-221.405	31.9049	-91.5892	-190.479	37.8031	-92.748	-216.93	5.55145	-70.8043	-184.558	14.2431	-79.0725	-177.199	14.8026	-42.3699	-202.052	-8.86342	-56.412	-168.617	-2.33392	-47.6938	-176.99	4.77438	-18.9373	-192.524	-27.0538	-46.6642	-170.565	-12.6667	-39.9265	-181.57	-6.95295	-7.76725	-237.174	-17.53	-12.7007	-239.898	-19.8643	16.2286	-245.504	12.399	3.73232	
56	0.466667	-210.267	37.0675	10.5937	-186.669	45.1567	-14.1659	-170.006	40.8795	-40.578	-159.634	20.2126	-54.7735	-227.227	32.6696	-61.5521	-211.55	42.0707	-88.4958	-181.797	47.2341	-88.3804	-209.407	11.3184	-71.6228	-176.744	17.1003	-74.7731	-173.455	16.1792	-36.0593	-195.543	-5.27443	-54.9825	-163.842	0.75328	-45.0721	-174.876	9.02228	-15.5538	-190.862	-22.177	-44.0078	-165.719	-10.4188	-37.8951	-176.668	-5.07927	-6.7416	-233.291	-18.3119	-18.2233	-238.849	-21.9605	17.0041	-239.78	16.9513	-0.0792266	
57	0.475	-205.619	35.3423	17.8195	-181.641	43.5255	-5.96383	-163.67	37.8099	-33.7574	-154.065	21.1398	-47.0163	-215.554	40.4475	-61.1944	-198.677	48.0622	-85.4757	-168.126	53.7049	-85.4774	-200.347	16.099	-69.248	-169.904	21.581	-74.0467	-166.302	18.6859	-31.3586	-184.322	0.204198	-56.0484	-156.334	5.12379	-44.2213	-165.176	8.32611	-14.5919	-182.394	-20.2683	-43.2553	-157.346	-9.81568	-30.1708	-169.316	-4.5048	-3.0035	-226.97	-14.8566	-16.1376	-236.397	-15.707	13.4519	-236.115	16.9954	2.0969	
58	0.483333	-200.337	38.6765	21.6143	-174.187	42.652	-1.55165	-155.149	41.2126	-24.4163	-144.295	22.2045	-43.1468	-206.193	43.6189	-55.1952	-190.705	55.1749	-79.8951	-157.766	61.2423	-87.291	-191.402	18.8976	-63.9129	-156.757	24.9661	-64.804	-157.091	20.7205	-25.8797	-179.278	0.21148	-52.0363	-149.238	3.95308	-39.8044	-158.059	7.57471	-10.915	-174.27	-19.1691	-41.2541	-152.051	-8.38046	-28.3985	-167.377	-4.04065	0.447153	-221.919	-8.31992	-18.6078	-231.557	-17.4571	13.4581	-230.552	17.7489	0.634665	
59	0.491667	-194.948	37.5957	25.4081	-166.909	40.8835	2.91025	-146.978	38.4482	-19.5601	-137.371	19.204	-36.8728	-196.238	50.0795	-54.7847	-179.083	64.3833	-75.5252	-156.601	66.5038	-85.8863	-180.701	20.3628	-63.7027	-149.698	26.2829	-63.5698	-148.507	17.369	-24.6588	-169.18	1.04705	-50.5006	-142.69	5.32515	-34.6744	-157.27	5.47553	-3.67059	-170.289	-19.3179	-37.182	-146.469	-9.81168	-20.3605	-162.421	-5.54971	0.426799	-218.078	-13.1199	-15.0163	-229.13	-18.43	11.5256	-225.761	22.3315	2.27345	
60	0.5	-190.719	35.8305	27.6729	-162.512	37.9394	6.75752	-138.842	36.0553	-18.991	-131.654	18.9081	-33.5666	-189.781	47.0764	-47.1277	-174.926	61.3334	-70.4901	-148.69	69.0645	-86.8258	-175.475	24.2755	-59.3218	-144.016	23.643	-60.1817	-142.75	18.9012	-17.054	-165.503	-0.193622	-47.7384	-138.442	-1.03963	-31.898	-151.035	3.69609	-3.23247	-166.086	-18.6652	-35.9586	-143.136	-14.4964	-19.958	-157.812	-8.59617	5.86134	-213.333	-8.17242	-17.8013	-226.807	-15.6144	14.0046	-219.603	17.4131	3.47393	
61	0.508333	-184.95	34.5065	28.1851	-155.564	36.7022	9.22937	-133.693	34.7617	-12.7505	-122.302	18.6329	-33.9113	-184.036	45.3362	-46.4964	-168.339	61.0416	-68.998	-145.991	72.4508	-82.3714	-168.693	22.1685	-58.1334	-136.901	19.094	-54.667	-138.617	13.4158	-15.7618	-162.76	-5.09371	-45.006	-135.237	-3.28991	-29.9496	-151.408	-2.81584	0.487551	-161.094	-24.0922	-35.6034	-140.809	-16.4793	-17.0436	-157.931	-9.04884	5.06896	-210.067	-9.61994	-17.3191	-222.796	-15.0389	11.7029	-218.09	23.0319	6.87913	
62	0.516667	-180.494	30.8181	31.7028	-150.861	32.1564	8.71414	-131.692	29.6394	-9.41678	-120.704	15.2081	-32.6776	-177.862	48.3247	-45.3228	-163.099	61.9854	-63.9749	-136.952	67.5875	-80.4449	-166.807	21.1509	-54.6904	-132.527	18.4415	-51.826	-135.102	5.84509	-15.8392	-159.168	-5.69868	-43.9809	-133.287	-6.48114	-29.3265	-150.59	-5.28438	2.55069	-162.485	-24.5556	-34.208	-140.642	-21.3714	-15.5747	-157.926	-13.9418	10.2155	-212.359	-6.64161	-11.6296	-222.02	-11.9393	14.6611	-212.644	21.7871	8.42328	
63	0.525	-176.445	26.8583	32.5431	-147.908	28.5728	12.207	-128.854	25.7623	-9.66201	-119.09	11.6219	-31.303	-173.646	48.1092	-41.0092	-154.796	61.8592	-62.7407	-127.781	65.2393	-74.1295	-163.391	19.822	-54.6438	-132.316	15.905	-53.6217	-133.324	5.42357	-14.3112	-161.092	-5.40866	-41.5546	-133.071	-10.5678	-25.7544	-148.803	-10.8147	3.25784	-164.979	-23.2511	-33.1066	-141.755	-25.8094	-13.8657	-158.192	-14.2943	10.7062	-209.566	-3.92154	-11.2599	-224.481	-15.5676	15.3262	-209.607	24.0346	8.65579	
